<svg xmlns="http://www.w3.org/2000/svg" viewBox="0 0 880 308" width="820" height="287.0" role="img" aria-label="ASCII dino runner">
<style>
text{font-family:ui-monospace,SFMono-Regular,'SF Mono',Menlo,Consolas,'Liberation Mono',monospace;font-size:12.0px;white-space:pre}
.scroll{animation:roll 6.0s linear infinite}
@keyframes roll{from{transform:translateX(0)}to{transform:translateX(-1440.0px)}}
.stars{animation:roll 24.0s linear infinite}
#dino{animation:jump 6.0s linear infinite}
@keyframes jump{0.0%{transform:translateY(0.00px)}17.19%{transform:translateY(-0.00px)}18.9%{transform:translateY(-35.79px)}20.62%{transform:translateY(-65.61px)}22.33%{transform:translateY(-89.47px)}24.05%{transform:translateY(-107.36px)}25.76%{transform:translateY(-119.29px)}27.48%{transform:translateY(-125.25px)}29.19%{transform:translateY(-125.25px)}30.9%{transform:translateY(-119.29px)}32.62%{transform:translateY(-107.36px)}34.33%{transform:translateY(-89.47px)}36.05%{transform:translateY(-65.61px)}37.76%{transform:translateY(-35.79px)}39.48%{transform:translateY(-0.00px)}66.89%{transform:translateY(-0.00px)}68.73%{transform:translateY(-35.79px)}70.58%{transform:translateY(-65.61px)}72.43%{transform:translateY(-89.47px)}74.27%{transform:translateY(-107.36px)}76.12%{transform:translateY(-119.29px)}77.97%{transform:translateY(-125.25px)}79.81%{transform:translateY(-125.25px)}81.66%{transform:translateY(-119.29px)}83.5%{transform:translateY(-107.36px)}85.35%{transform:translateY(-89.47px)}87.2%{transform:translateY(-65.61px)}89.04%{transform:translateY(-35.79px)}90.89%{transform:translateY(-0.00px)}100.0%{transform:translateY(0.00px)}}
.la{animation:st .3s steps(1,end) infinite}
.lb{animation:st .3s steps(1,end) infinite;animation-delay:.15s}
@keyframes st{0%,50%{opacity:1}50.01%,100%{opacity:0}}
@media(prefers-reduced-motion:reduce){
.scroll,.stars,#dino,.la,.lb{animation:none}.lb{opacity:0}}
</style>
<rect width="100%" height="100%" fill="#0d1117"/>
<g class="stars">
<text x="1320.0" y="67.0" fill="#3d444d">*</text>
<text x="2664.0" y="25.0" fill="#3d444d">.</text>
<text x="2192.0" y="53.0" fill="#3d444d">·</text>
<text x="2384.0" y="25.0" fill="#3d444d">.</text>
<text x="152.0" y="39.0" fill="#3d444d">*</text>
<text x="1712.0" y="39.0" fill="#3d444d">.</text>
<text x="368.0" y="193.0" fill="#3d444d">.</text>
<text x="2312.0" y="53.0" fill="#3d444d">.</text>
<text x="2576.0" y="25.0" fill="#3d444d">*</text>
<text x="200.0" y="109.0" fill="#3d444d">.</text>
<text x="2280.0" y="67.0" fill="#3d444d">·</text>
<text x="1712.0" y="67.0" fill="#3d444d">.</text>
<text x="2336.0" y="137.0" fill="#3d444d">.</text>
<text x="416.0" y="95.0" fill="#3d444d">·</text>
<text x="392.0" y="39.0" fill="#3d444d">.</text>
<text x="2528.0" y="95.0" fill="#3d444d">*</text>
<text x="2784.0" y="193.0" fill="#3d444d">·</text>
<text x="1904.0" y="207.0" fill="#3d444d">·</text>
<text x="1224.0" y="109.0" fill="#3d444d">.</text>
<text x="2856.0" y="109.0" fill="#3d444d">.</text>
<text x="2352.0" y="137.0" fill="#3d444d">*</text>
<text x="1400.0" y="207.0" fill="#3d444d">·</text>
<text x="2488.0" y="39.0" fill="#3d444d">.</text>
<text x="2096.0" y="193.0" fill="#3d444d">.</text>
<text x="1400.0" y="67.0" fill="#3d444d">*</text>
<text x="1720.0" y="25.0" fill="#3d444d">.</text>
<text x="2280.0" y="151.0" fill="#3d444d">·</text>
<text x="2840.0" y="165.0" fill="#3d444d">*</text>
<text x="2368.0" y="207.0" fill="#3d444d">.</text>
<text x="376.0" y="123.0" fill="#3d444d">*</text>
<text x="2848.0" y="39.0" fill="#3d444d">.</text>
<text x="2872.0" y="137.0" fill="#3d444d">*</text>
<text x="1160.0" y="179.0" fill="#3d444d">·</text>
<text x="88.0" y="207.0" fill="#3d444d">·</text>
<text x="688.0" y="53.0" fill="#3d444d">*</text>
<text x="240.0" y="95.0" fill="#3d444d">·</text>
<text x="528.0" y="109.0" fill="#3d444d">*</text>
<text x="1600.0" y="221.0" fill="#3d444d">.</text>
<text x="680.0" y="207.0" fill="#3d444d">*</text>
<text x="2248.0" y="123.0" fill="#3d444d">.</text>
<text x="1760.0" y="123.0" fill="#3d444d">*</text>
<text x="1464.0" y="179.0" fill="#3d444d">.</text>
<text x="616.0" y="39.0" fill="#3d444d">.</text>
<text x="616.0" y="109.0" fill="#3d444d">.</text>
<text x="48.0" y="221.0" fill="#3d444d">.</text>
<text x="1072.0" y="137.0" fill="#3d444d">.</text>
<text x="592.0" y="193.0" fill="#3d444d">·</text>
<text x="2496.0" y="151.0" fill="#3d444d">.</text>
<text x="2824.0" y="25.0" fill="#3d444d">*</text>
<text x="2784.0" y="179.0" fill="#3d444d">*</text>
<text x="1632.0" y="179.0" fill="#3d444d">.</text>
<text x="1968.0" y="179.0" fill="#3d444d">.</text>
<text x="776.0" y="39.0" fill="#3d444d">.</text>
<text x="1800.0" y="81.0" fill="#3d444d">.</text>
<text x="1392.0" y="25.0" fill="#3d444d">.</text>
<text x="0.0" y="67.0" fill="#3d444d">.</text>
<text x="1488.0" y="11.0" fill="#3d444d">.</text>
<text x="848.0" y="179.0" fill="#3d444d">.</text>
<text x="2592.0" y="123.0" fill="#3d444d">·</text>
<text x="2464.0" y="165.0" fill="#3d444d">*</text>
<text x="496.0" y="53.0" fill="#3d444d">*</text>
<text x="1904.0" y="221.0" fill="#3d444d">*</text>
<text x="1272.0" y="39.0" fill="#3d444d">.</text>
<text x="416.0" y="151.0" fill="#3d444d">·</text>
<text x="1960.0" y="81.0" fill="#3d444d">.</text>
<text x="840.0" y="165.0" fill="#3d444d">.</text>
<text x="2824.0" y="11.0" fill="#3d444d">·</text>
<text x="2632.0" y="39.0" fill="#3d444d">·</text>
<text x="2120.0" y="165.0" fill="#3d444d">.</text>
<text x="1456.0" y="109.0" fill="#3d444d">·</text>
<text x="2600.0" y="109.0" fill="#3d444d">.</text>
<text x="976.0" y="179.0" fill="#3d444d">.</text>
<text x="816.0" y="221.0" fill="#3d444d">·</text>
<text x="112.0" y="11.0" fill="#3d444d">·</text>
<text x="1928.0" y="123.0" fill="#3d444d">.</text>
<text x="2832.0" y="165.0" fill="#3d444d">*</text>
<text x="1424.0" y="165.0" fill="#3d444d">.</text>
<text x="896.0" y="53.0" fill="#3d444d">.</text>
<text x="1920.0" y="95.0" fill="#3d444d">·</text>
<text x="832.0" y="221.0" fill="#3d444d">.</text>
<text x="1960.0" y="165.0" fill="#3d444d">.</text>
<text x="2704.0" y="53.0" fill="#3d444d">*</text>
<text x="816.0" y="221.0" fill="#3d444d">.</text>
<text x="1776.0" y="151.0" fill="#3d444d">.</text>
<text x="1616.0" y="207.0" fill="#3d444d">*</text>
<text x="344.0" y="81.0" fill="#3d444d">.</text>
<text x="520.0" y="11.0" fill="#3d444d">.</text>
<text x="2416.0" y="207.0" fill="#3d444d">.</text>
<text x="2504.0" y="221.0" fill="#3d444d">·</text>
<text x="632.0" y="67.0" fill="#3d444d">.</text>
</g>
<g class="scroll">
<text x="0" y="291.0" fill="#6e7681">▂_  ____ _  ___▂_ ____ _ _____ _ ___ __ __ ___ ▂_▂__ ____ ___▂_   ▂_______ __▂_____ _  __▂___ ____ ________▂___ ___▂  __ ___▂_ ___ _____ _______▂____  _ ____   __▂▂____   _ __▂  __   _______ ____ _ ____ ___▂ _ __  ▂▂ _▂  ___  _▂________▂________ ___ ___  __ _ _▂   _ ▂______ _▂__ ▂ _▂▂_ ____▂  ▂_ ___  ___ _▂_ _____ _ _ _____  _ __   _ ________ ________ _ ____</text>
<text x="560.0" y="235.0" fill="#e6edf3">  ██  </text>
<text x="560.0" y="249.0" fill="#e6edf3">█ ██ █</text>
<text x="560.0" y="263.0" fill="#e6edf3">██████</text>
<text x="560.0" y="277.0" fill="#e6edf3">  ██  </text>
<text x="1280.0" y="235.0" fill="#e6edf3">   ██   </text>
<text x="1280.0" y="249.0" fill="#e6edf3">█  ██ █ </text>
<text x="1280.0" y="263.0" fill="#e6edf3">██████  </text>
<text x="1280.0" y="277.0" fill="#e6edf3">   ██   </text>
<text x="2000.0" y="235.0" fill="#e6edf3">  ██  </text>
<text x="2000.0" y="249.0" fill="#e6edf3">█ ██ █</text>
<text x="2000.0" y="263.0" fill="#e6edf3">██████</text>
<text x="2000.0" y="277.0" fill="#e6edf3">  ██  </text>
<text x="2720.0" y="235.0" fill="#e6edf3">   ██   </text>
<text x="2720.0" y="249.0" fill="#e6edf3">█  ██ █ </text>
<text x="2720.0" y="263.0" fill="#e6edf3">██████  </text>
<text x="2720.0" y="277.0" fill="#e6edf3">   ██   </text>
</g>
<g id="dino">
<text x="96.0" y="137.0" fill="#e6edf3">            ███████ </text>
<text x="96.0" y="151.0" fill="#e6edf3">            ██ █████</text>
<text x="96.0" y="165.0" fill="#e6edf3">            ███████ </text>
<text x="96.0" y="179.0" fill="#e6edf3">            ██      </text>
<text x="96.0" y="193.0" fill="#e6edf3">  █         ████████</text>
<text x="96.0" y="207.0" fill="#e6edf3">  ██      ██████████</text>
<text x="96.0" y="221.0" fill="#e6edf3">  ██████████████████</text>
<text x="96.0" y="235.0" fill="#e6edf3">   ████████████████ </text>
<text x="96.0" y="249.0" fill="#e6edf3">    ██████████████  </text>
<text class="la" x="96.0" y="263.0" fill="#e6edf3">     ███    ███     </text>
<text class="la" x="96.0" y="277.0" fill="#e6edf3">     ██      ███    </text>
<text class="lb" x="96.0" y="263.0" fill="#e6edf3">     ███    ███     </text>
<text class="lb" x="96.0" y="277.0" fill="#e6edf3">      ███   ██      </text>
</g>
</svg>